<svg width="73" height="278" xmlns="http://www.w3.org/2000/svg">
 <!-- Created with Method Draw - http://github.com/duopixel/Method-Draw/ -->
 <g>
  <title>background</title>
 </g>
 <g>
  <title>Layer 1</title>
  <g fill="#333333" id="g1079">
   <path fill="#333333" stroke="#000000" stroke-width="1.21" stroke-linecap="round" stroke-linejoin="round" stroke-miterlimit="4" id="svg_1" d="m30.699432,0.0002c-0.93852,-0.0077 -1.52202,0.20476 -1.81177,0.91829c0,0 -0.77032,1.47458 -0.64544,2.34714c0.12488,0.87256 1.51102,2.14406 1.51102,2.14406c2.30433,3.1334 2.41707,4.69242 0.57257,7.92355c-1.07565,1.88428 -1.83507,2.48264 -3.50831,2.76468c-7.55798,1.27399 -14.59191,4.06765 -18.52289,7.35666c-7.14725,5.98002 -9.47316,16.24059 -5.74332,25.33644c1.58563,3.86681 4.69331,8.89679 6.49986,10.52029c0.75035,0.67431 1.29346,1.90143 1.29346,2.92282c0,0.96827 0.61689,2.59481 1.37098,3.61476l1.37098,1.85467l-1.67639,3.00188c-0.92187,1.65115 -1.6813,3.34535 -1.6893,3.76463c-0.007,0.41928 -0.55045,1.44829 -1.20665,2.2872c-1.70582,2.18076 -1.51234,4.11907 0.60978,6.10144c1.14598,1.07049 1.83038,2.31605 1.83038,3.33158c0,0.8921 1.10077,4.89069 2.44585,8.88578c5.17615,15.37387 4.0213,25.27458 -5.42913,46.5434c-4.43806,9.98816 -5.88866,14.90875 -6.77839,22.99447c-1.06059,9.63855 1.01056,20.63627 5.26014,27.92801l1.52032,2.60811l-2.17868,2.54558c-3.73542,4.36399 -4.13341,9.3005 -1.21956,15.13189l1.37873,2.75953l-2.03864,2.22467c-3.51701,3.83773 -4.2268,10.1082 -1.73581,15.33187c1.05162,2.20527 1.04428,2.28585 -0.41651,4.83641c-1.4397,2.51374 -1.49112,3.03476 -1.67948,16.91782c-0.23764,17.51546 -0.15146,18.10636 2.8236,19.35233c3.82833,1.60335 11.55649,2.68656 22.69059,3.18066c5.87236,0.26065 10.81398,0.51062 10.98176,0.55502c1.32766,0.35145 22.56388,-1.29529 25.93018,-2.01073c7.15796,-1.52124 7.01611,-1.13448 7.01611,-19.16421c0,-14.76419 -0.0339,-15.18309 -1.47072,-18.02112l-1.47122,-2.90526l1.46502,-3.14657c2.33443,-5.01372 1.8025,-9.51084 -1.64899,-13.94024c-0.96522,-1.23868 -1.75493,-2.44669 -1.75493,-2.68459c0,-0.23791 0.71923,-1.90319 1.59835,-3.70002c1.32392,-2.70592 1.55372,-3.88561 1.3379,-6.86936c-0.24784,-3.42634 -0.8817,-4.7941 -4.408,-9.51777c-0.36189,-0.48477 -0.13138,-1.36005 0.65888,-2.50372c1.39397,-2.01737 3.3293,-6.8299 4.87825,-12.13001c0.78769,-2.69526 1.05418,-5.67205 1.01028,-11.28717c-0.0865,-11.05643 -1.00731,-14.6866 -8.11992,-32.01199c-4.80092,-11.69444 -6.09884,-17.08742 -6.09884,-25.33902c0,-7.01999 1.27445,-13.50669 3.92378,-19.9688c0.85711,-2.0906 1.55856,-4.71574 1.55856,-5.83378c0,-1.55119 0.43367,-2.35372 1.83038,-3.38636c2.20664,-1.63143 2.41453,-3.98947 0.61236,-6.94531c-0.66988,-1.09869 -1.21908,-2.38802 -1.22008,-2.86494c-0.001,-0.47692 -0.37733,-1.30061 -0.83561,-1.83038c-1.50703,-1.74213 -1.64041,-3.94084 -0.36638,-6.03581c0.65987,-1.08508 1.19941,-2.51752 1.19941,-3.18275c0,-0.66524 0.71253,-1.82534 1.58337,-2.57813c2.14331,-1.85281 6.03724,-8.51016 7.55096,-12.90981c4.73396,-13.75954 -4.03842,-26.39772 -20.9367,-30.16302c-2.95456,-0.65834 -5.45479,-1.29085 -5.55625,-1.4056c-0.65667,-0.74264 -2.77503,-5.50468 -2.77503,-6.23837c0,-0.49097 0.70538,-1.731 1.56735,-2.75539c1.76103,-2.09286 3.39776,-4.71798 0.2465,-6.00429c-0.86013,-0.35109 -0.92586,-0.47948 -1.80868,-0.55552c-1.00843,0.05669 -3.62251,0.34727 -3.62251,0.34727c-0.54286,0.0051 -1.58933,0.17795 -3.81113,-0.03979c-1.71021,-0.16761 -3.00388,-0.39535 -3.9424,-0.40308z"/>
   <path fill="#333333" fill-rule="evenodd" stroke="#000000" stroke-width="1.21" stroke-linecap="round" stroke-linejoin="round" stroke-miterlimit="4" stroke-dashoffset="0" id="svg_2" d="m30.734502,15.87424c0,0 4.60391,0.54002 6.61662,0.51053c2.0127,-0.02949 5.41051,-0.57735 5.41051,-0.57735"/>
   <path fill="#333333" fill-rule="evenodd" stroke="#000000" stroke-width="1.21" stroke-linecap="round" stroke-linejoin="round" stroke-miterlimit="4" stroke-dashoffset="0" d="m32.322002,5.2909c0,0 4.60392,0.54002 6.61662,0.51053c2.0127,-0.02949 5.41051,-0.57735 5.41051,-0.57735" id="svg_3"/>
   <path fill="#333333" fill-rule="evenodd" stroke="#170b05" stroke-width="1.1" stroke-linecap="round" stroke-linejoin="round" stroke-miterlimit="4" stroke-dashoffset="0" d="m15.967852,77.47986l18.97614,0.66818l19.37704,-0.40091m-35.68048,-5.21176l16.03617,0.93545l20.44612,-0.26727m-36.61592,-7.34991l16.1698,0.4009l18.97614,-0.26727m-45.16855,172.25521c0,0 14.64624,1.42144 23.51972,1.60362c8.87347,0.18218 29.66692,-0.80181 29.66692,-0.80181m-52.88246,-22.13431c0,0 14.10634,2.17863 23.48281,2.62363c9.37646,0.445 29.66691,-1.60361 29.66691,-1.60361m-51.50818,-21.26804c0,0 14.75545,1.79253 23.44488,2.02463c8.68944,0.2321 25.92515,-2.13816 25.92515,-2.13816m-45.43582,-111.71866l19.77794,0.53454l23.78699,-0.53454m-44.36674,-25.12333l21.64883,0.80181l24.85607,0" id="svg_4"/>
  </g>
 </g>
</svg>