<?xml version="1.0" encoding="UTF-8" standalone="no"?>
<svg
   xmlns:dc="http://purl.org/dc/elements/1.1/"
   xmlns:cc="http://creativecommons.org/ns#"
   xmlns:rdf="http://www.w3.org/1999/02/22-rdf-syntax-ns#"
   xmlns:svg="http://www.w3.org/2000/svg"
   xmlns="http://www.w3.org/2000/svg"
   xmlns:sodipodi="http://sodipodi.sourceforge.net/DTD/sodipodi-0.dtd"
   xmlns:inkscape="http://www.inkscape.org/namespaces/inkscape"
   inkscape:version="1.0 (4035a4fb49, 2020-05-01)"
   sodipodi:docname="pepper_red.svg"
   id="svg15"
   version="1.1"
   height="278"
   width="73">
  <metadata
     id="metadata21">
    <rdf:RDF>
      <cc:Work
         rdf:about="">
        <dc:format>image/svg+xml</dc:format>
        <dc:type
           rdf:resource="http://purl.org/dc/dcmitype/StillImage" />
        <dc:title></dc:title>
      </cc:Work>
    </rdf:RDF>
  </metadata>
  <defs
     id="defs19" />
  <sodipodi:namedview
     inkscape:current-layer="svg15"
     inkscape:window-maximized="1"
     inkscape:window-y="-8"
     inkscape:window-x="-8"
     inkscape:cy="139"
     inkscape:cx="36.5"
     inkscape:zoom="3.6258993"
     showgrid="false"
     id="namedview17"
     inkscape:window-height="1377"
     inkscape:window-width="2560"
     inkscape:pageshadow="2"
     inkscape:pageopacity="0"
     guidetolerance="10"
     gridtolerance="10"
     objecttolerance="10"
     borderopacity="1"
     bordercolor="#666666"
     pagecolor="#ffffff" />
  <!-- Created with Method Draw - http://github.com/duopixel/Method-Draw/ -->
  <g
     id="g4">
    <title
       id="title2">background</title>
  </g>
  <g
     id="g13">
    <title
       id="title6">Layer 1</title>
    <g
       id="g1079"
       fill="#333333">
      <path
         d="m30.699432,0.0002c-0.93852,-0.0077 -1.52202,0.20476 -1.81177,0.91829c0,0 -0.77032,1.47458 -0.64544,2.34714c0.12488,0.87256 1.51102,2.14406 1.51102,2.14406c2.30433,3.1334 2.41707,4.69242 0.57257,7.92355c-1.07565,1.88428 -1.83507,2.48264 -3.50831,2.76468c-7.55798,1.27399 -14.59191,4.06765 -18.52289,7.35666c-7.14725,5.98002 -9.47316,16.24059 -5.74332,25.33644c1.58563,3.86681 4.69331,8.89679 6.49986,10.52029c0.75035,0.67431 1.29346,1.90143 1.29346,2.92282c0,0.96827 0.61689,2.59481 1.37098,3.61476l1.37098,1.85467l-1.67639,3.00188c-0.92187,1.65115 -1.6813,3.34535 -1.6893,3.76463c-0.007,0.41928 -0.55045,1.44829 -1.20665,2.2872c-1.70582,2.18076 -1.51234,4.11907 0.60978,6.10144c1.14598,1.07049 1.83038,2.31605 1.83038,3.33158c0,0.8921 1.10077,4.89069 2.44585,8.88578c5.17615,15.37387 4.0213,25.27458 -5.42913,46.5434c-4.43806,9.98816 -5.88866,14.90875 -6.77839,22.99447c-1.06059,9.63855 1.01056,20.63627 5.26014,27.92801l1.52032,2.60811l-2.17868,2.54558c-3.73542,4.36399 -4.13341,9.3005 -1.21956,15.13189l1.37873,2.75953l-2.03864,2.22467c-3.51701,3.83773 -4.2268,10.1082 -1.73581,15.33187c1.05162,2.20527 1.04428,2.28585 -0.41651,4.83641c-1.4397,2.51374 -1.49112,3.03476 -1.67948,16.91782c-0.23764,17.51546 -0.15146,18.10636 2.8236,19.35233c3.82833,1.60335 11.55649,2.68656 22.69059,3.18066c5.87236,0.26065 10.81398,0.51062 10.98176,0.55502c1.32766,0.35145 22.56388,-1.29529 25.93018,-2.01073c7.15796,-1.52124 7.01611,-1.13448 7.01611,-19.16421c0,-14.76419 -0.0339,-15.18309 -1.47072,-18.02112l-1.47122,-2.90526l1.46502,-3.14657c2.33443,-5.01372 1.8025,-9.51084 -1.64899,-13.94024c-0.96522,-1.23868 -1.75493,-2.44669 -1.75493,-2.68459c0,-0.23791 0.71923,-1.90319 1.59835,-3.70002c1.32392,-2.70592 1.55372,-3.88561 1.3379,-6.86936c-0.24784,-3.42634 -0.8817,-4.7941 -4.408,-9.51777c-0.36189,-0.48477 -0.13138,-1.36005 0.65888,-2.50372c1.39397,-2.01737 3.3293,-6.8299 4.87825,-12.13001c0.78769,-2.69526 1.05418,-5.67205 1.01028,-11.28717c-0.0865,-11.05643 -1.00731,-14.6866 -8.11992,-32.01199c-4.80092,-11.69444 -6.09884,-17.08742 -6.09884,-25.33902c0,-7.01999 1.27445,-13.50669 3.92378,-19.9688c0.85711,-2.0906 1.55856,-4.71574 1.55856,-5.83378c0,-1.55119 0.43367,-2.35372 1.83038,-3.38636c2.20664,-1.63143 2.41453,-3.98947 0.61236,-6.94531c-0.66988,-1.09869 -1.21908,-2.38802 -1.22008,-2.86494c-0.001,-0.47692 -0.37733,-1.30061 -0.83561,-1.83038c-1.50703,-1.74213 -1.64041,-3.94084 -0.36638,-6.03581c0.65987,-1.08508 1.19941,-2.51752 1.19941,-3.18275c0,-0.66524 0.71253,-1.82534 1.58337,-2.57813c2.14331,-1.85281 6.03724,-8.51016 7.55096,-12.90981c4.73396,-13.75954 -4.03842,-26.39772 -20.9367,-30.16302c-2.95456,-0.65834 -5.45479,-1.29085 -5.55625,-1.4056c-0.65667,-0.74264 -2.77503,-5.50468 -2.77503,-6.23837c0,-0.49097 0.70538,-1.731 1.56735,-2.75539c1.76103,-2.09286 3.39776,-4.71798 0.2465,-6.00429c-0.86013,-0.35109 -0.92586,-0.47948 -1.80868,-0.55552c-1.00843,0.05669 -3.62251,0.34727 -3.62251,0.34727c-0.54286,0.0051 -1.58933,0.17795 -3.81113,-0.03979c-1.71021,-0.16761 -3.00388,-0.39535 -3.9424,-0.40308z"
         id="svg_1"
         stroke-miterlimit="4"
         stroke-linejoin="round"
         stroke-linecap="round"
         stroke-width="1.21"
         stroke="#000000"
         fill="#333333" />
      <path
         d="m30.734502,15.87424c0,0 4.60391,0.54002 6.61662,0.51053c2.0127,-0.02949 5.41051,-0.57735 5.41051,-0.57735"
         id="svg_2"
         stroke-dashoffset="0"
         stroke-miterlimit="4"
         stroke-linejoin="round"
         stroke-linecap="round"
         stroke-width="1.21"
         stroke="#000000"
         fill-rule="evenodd"
         fill="#333333" />
      <path
         id="svg_3"
         d="m32.322002,5.2909c0,0 4.60392,0.54002 6.61662,0.51053c2.0127,-0.02949 5.41051,-0.57735 5.41051,-0.57735"
         stroke-dashoffset="0"
         stroke-miterlimit="4"
         stroke-linejoin="round"
         stroke-linecap="round"
         stroke-width="1.21"
         stroke="#000000"
         fill-rule="evenodd"
         fill="#333333" />
      <path
         id="svg_4"
         d="m15.967852,77.47986l18.97614,0.66818l19.37704,-0.40091m-35.68048,-5.21176l16.03617,0.93545l20.44612,-0.26727m-36.61592,-7.34991l16.1698,0.4009l18.97614,-0.26727m-45.16855,172.25521c0,0 14.64624,1.42144 23.51972,1.60362c8.87347,0.18218 29.66692,-0.80181 29.66692,-0.80181m-52.88246,-22.13431c0,0 14.10634,2.17863 23.48281,2.62363c9.37646,0.445 29.66691,-1.60361 29.66691,-1.60361m-51.50818,-21.26804c0,0 14.75545,1.79253 23.44488,2.02463c8.68944,0.2321 25.92515,-2.13816 25.92515,-2.13816m-45.43582,-111.71866l19.77794,0.53454l23.78699,-0.53454m-44.36674,-25.12333l21.64883,0.80181l24.85607,0"
         stroke-dashoffset="0"
         stroke-miterlimit="4"
         stroke-linejoin="round"
         stroke-linecap="round"
         stroke-width="1.1"
         stroke="#170b05"
         fill-rule="evenodd"
         fill="#333333" />
    </g>
  </g>
  <path
     id="path25"
     d="M 28.501984,276.86812 C 14.935986,276.20432 7.0352585,275.15918 3.0814713,273.5054 1.5365372,272.8592 1.1767085,272.069 0.89238031,268.69806 0.61268369,265.38204 0.83349365,246.71865 1.1988945,242.79075 c 0.2007552,-2.15804 0.39942,-2.84677 1.358403,-4.70936 0.617792,-1.19991 1.1232581,-2.42482 1.1232581,-2.72201 0,-0.2972 -0.4642907,-1.65299 -1.0317569,-3.01287 -0.9921388,-2.37756 -1.0313735,-2.59429 -1.0217754,-5.64413 0.014071,-4.47115 0.4606259,-5.53906 4.0953521,-9.79377 l 1.076542,-1.26017 -1.2774296,-2.67789 c -3.1379528,-6.57813 -2.7695209,-10.55603 1.4295728,-15.43488 0.9315794,-1.08238 1.6937807,-2.07771 1.6937807,-2.21184 0,-0.13413 -0.907905,-2.03351 -2.0175668,-4.22085 C 3.3500637,184.64301 2.0511742,179.27414 1.8285635,171.26786 1.5550991,161.4326 3.0086497,155.06268 8.3736252,142.58532 18.247372,119.62187 19.284959,111.0999 14.162638,95.038647 12.769656,90.670891 11.875609,87.382993 11.552251,85.438827 11.450387,84.826374 10.916279,83.845514 10.22036,82.992884 7.7476134,79.963302 7.6366721,79.351355 9.1590392,77.138668 c 0.4549572,-0.661257 1.0720068,-1.89882 1.3712218,-2.75014 0.299215,-0.85132 1.17642,-2.669674 1.949343,-4.040788 0.772924,-1.371114 1.405317,-2.555934 1.405317,-2.632936 0,-0.077 -0.552763,-0.947392 -1.228362,-1.934207 -0.6756,-0.986814 -1.307879,-2.260118 -1.405066,-2.829565 C 10.856586,60.637167 10.513836,59.838322 9.3687315,58.562904 6.8522311,55.760024 3.8291772,50.446514 2.6196356,46.700269 -0.29864077,37.661653 2.9749858,27.80572 10.573188,22.754445 c 3.520602,-2.340492 8.706803,-4.320853 14.476439,-5.527856 1.822953,-0.381361 3.624728,-0.919216 4.003944,-1.195234 1.51772,-1.104694 3.31603,-4.620169 3.303468,-6.4578715 -0.008,-1.1682619 -0.869445,-3.0220679 -2.21454,-4.7655618 C 28.9739,3.2932001 28.89897,3.0079397 29.338513,1.7470686 l 0.284942,-0.81738398 6.694971,0.0523456 c 5.502356,0.043021 6.845813,0.13034938 7.541756,0.49023518 0.465733,0.2408393 0.918641,0.6251435 1.006465,0.8540094 0.225439,0.5874829 -0.318572,2.0003727 -0.870542,2.2609483 -0.25485,0.1203114 -3.121314,0.2233419 -6.369918,0.2289567 -5.761705,0.00996 -6.376956,0.1017276 -5.879143,0.8769099 0.443766,0.6910223 8.135284,1.0282989 10.812929,0.4741519 0.640461,-0.1325456 0.655084,-0.110489 0.240103,0.3621778 -0.898086,1.0229263 -1.398467,2.3701634 -1.26099,3.3951252 0.176533,1.3161594 2.371227,6.0327514 2.951663,6.3433914 0.247417,0.132413 2.2429,0.674147 4.434411,1.203852 2.191509,0.529706 4.915366,1.298611 6.053015,1.708678 8.66959,3.124967 14.813185,9.318803 16.423771,16.55808 0.667969,3.002389 0.440864,7.443103 -0.536284,10.486356 -1.351695,4.209756 -4.751464,10.23874 -7.571159,13.426325 -1.009639,1.141366 -1.54213,2.045768 -1.867382,3.171627 -0.250247,0.866229 -0.779751,2.195499 -1.176674,2.953932 -1.119625,2.139361 -1.01652,4.191407 0.318994,6.348692 0.565278,0.913112 1.027781,1.856919 1.027781,2.097353 0,0.240432 0.495891,1.417003 1.101981,2.614598 0.778303,1.537886 1.10233,2.527743 1.103174,3.37005 0.0011,1.068055 -0.155489,1.356863 -1.499197,2.765601 -1.647561,1.727295 -2.084794,2.592603 -2.085188,4.126719 -1.43e-4,0.558949 -0.565347,2.629665 -1.256008,4.60159 -2.701041,7.711816 -3.476065,10.969121 -4.002867,16.823411 -0.496244,5.51468 -0.06565,11.06209 1.275416,16.43129 0.908365,3.63681 2.153587,7.12521 5.701849,15.97327 5.62709,14.03191 6.707851,18.21721 7.013819,27.16141 0.202432,5.91767 -0.170874,10.34597 -1.159699,13.75677 -1.061642,3.66197 -3.052211,8.63829 -4.29457,10.73621 -0.60986,1.02985 -1.119151,2.23519 -1.131755,2.67854 -0.01553,0.54624 0.43916,1.47451 1.410533,2.87965 0.7884,1.14046 1.767663,2.78958 2.176141,3.66472 0.670292,1.43605 0.742977,1.90033 0.745622,4.76278 l 0.0029,3.17163 -1.344494,2.86225 c -0.739471,1.57424 -1.344494,3.14672 -1.344494,3.49441 0,0.34768 0.681583,1.60387 1.514629,2.79152 1.839301,2.62224 2.390008,3.67206 2.868811,5.46888 0.72304,2.71339 0.34183,5.00082 -1.520484,9.12361 l -1.081006,2.39313 1.238032,2.56078 c 1.706126,3.52901 1.8012,4.63454 1.678439,19.51703 -0.09501,11.51903 -0.143675,12.57751 -0.642425,13.97495 -0.434251,1.2167 -0.747749,1.62793 -1.605412,2.10592 -1.935294,1.07857 -7.197384,1.82038 -19.342945,2.72684 -5.867601,0.43791 -11.233916,0.46896 -18.616071,0.10773 z m 28.102419,-36.91618 c 5.368538,-0.25869 6.326811,-0.47068 5.532586,-1.22392 -0.330326,-0.31328 -1.261091,-0.33966 -5.228259,-0.14816 -2.654514,0.12814 -9.790674,0.31734 -15.858135,0.42045 -11.185661,0.19008 -17.720268,-0.0604 -28.820436,-1.10481 -3.97883,-0.37436 -4.4865628,-0.33491 -4.3568678,0.33855 0.1248352,0.64821 1.0672439,0.78879 9.4590498,1.41098 4.247222,0.3149 8.342758,0.62168 9.101191,0.68174 2.255934,0.17866 24.391598,-0.0964 30.170871,-0.37483 z M 41.740079,220.08213 c 9.638906,-0.45533 20.219561,-1.38578 20.672704,-1.81794 0.299341,-0.28548 0.322157,-0.46298 0.08943,-0.69571 -0.232729,-0.23273 -1.707365,-0.19732 -5.779847,0.1388 -11.381179,0.93932 -13.649626,1.05989 -20.360262,1.08212 -7.172924,0.0238 -10.287342,-0.21988 -20.82242,-1.62901 -2.806201,-0.37534 -5.5655199,-0.75551 -6.1318203,-0.84482 -0.810809,-0.12787 -1.0677025,-0.0632 -1.2087437,0.30437 -0.098508,0.2567 -0.068427,0.57742 0.066848,0.71269 0.2848725,0.28488 10.615589,1.68896 17.06439,2.31929 7.553114,0.73826 9.054992,0.77764 16.409721,0.43021 z m -0.111754,-20.98104 c 6.302293,-0.42773 18.322224,-1.8064 18.655587,-2.13976 0.155857,-0.15586 0.203533,-0.49145 0.105946,-0.74576 -0.135299,-0.35258 -0.389578,-0.42397 -1.070846,-0.30065 -2.368549,0.42872 -13.786533,1.57653 -18.649997,1.87481 -6.301239,0.38646 -11.637386,0.14778 -23.092128,-1.03286 -3.856412,-0.39748 -7.195532,-0.65214 -7.420265,-0.5659 -0.6239621,0.23944 -0.4864709,0.97338 0.21193,1.1313 0.863094,0.19516 13.97518,1.48087 17.995535,1.76456 4.874648,0.34397 8.351258,0.34771 13.264238,0.0143 z M 54.702381,85.530352 c 3.481947,-0.161058 3.723214,-0.20796 3.723214,-0.723804 0,-0.542691 -0.137897,-0.549365 -8.549603,-0.413691 -11.312101,0.182454 -23.525946,0.143611 -30.373757,-0.09659 -5.073381,-0.177961 -5.567806,-0.154428 -5.731759,0.272826 -0.09869,0.257175 -0.07907,0.567948 0.04359,0.69061 0.639202,0.639201 28.879159,0.826129 40.888318,0.270653 z m -1.244204,-7.168608 c 0.948937,-0.124797 1.402402,-0.318889 1.461455,-0.625528 0.04709,-0.244524 -0.07561,-0.497115 -0.272661,-0.561312 -0.197054,-0.0642 -4.577923,-0.0176 -9.735265,0.103539 -5.629205,0.132229 -12.242932,0.110077 -16.547619,-0.05543 -12.034879,-0.462708 -13.858183,-0.372669 -12.850908,0.634606 0.729498,0.729499 32.973878,1.157884 37.944998,0.504121 z m 2.177153,-4.739462 c 0.133906,-0.123252 0.162076,-0.436198 0.06259,-0.695438 -0.167972,-0.437734 -0.9228,-0.457881 -10.585727,-0.282573 -8.006913,0.145266 -11.962086,0.09137 -17.1618,-0.233865 -9.269045,-0.579765 -9.928572,-0.571571 -9.928572,0.123324 0,0.303373 0.03103,0.564282 0.06895,0.579798 0.03792,0.01553 3.419841,0.250666 7.515377,0.522558 5.981346,0.397085 9.644051,0.466405 18.616071,0.352321 6.143304,-0.07812 11.279202,-0.242873 11.413108,-0.366125 z m -1.520853,-7.30055 c 0.21278,-0.199666 0.284073,-0.505086 0.163458,-0.700246 -0.168243,-0.272222 -2.368825,-0.311875 -10.305949,-0.185708 -5.550614,0.08823 -13.567026,0.05919 -17.814248,-0.06453 -6.431088,-0.187344 -7.789414,-0.16105 -8.124093,0.157268 -0.294628,0.280226 -0.320121,0.463976 -0.09553,0.688566 0.753188,0.753187 35.378492,0.85335 36.176362,0.10465 z m 6.517467,-5.785026 c 0,-0.543583 -0.2401,-0.554036 -16.547619,-0.720301 -9.10119,-0.09279 -19.762469,-0.317441 -23.69173,-0.49922 -5.614792,-0.259753 -7.188605,-0.258512 -7.351963,0.0058 -0.461523,0.746758 0.06585,1.075647 1.770125,1.103927 0.931812,0.01547 5.355364,0.183329 9.830116,0.373039 4.474752,0.18971 14.403323,0.332193 22.063492,0.31663 13.734284,-0.02791 13.927579,-0.03595 13.927579,-0.579884 z M 42.291667,16.607993 c 0.716374,-0.162303 0.988902,-0.382942 1.056899,-0.855665 l 0.09162,-0.63697 -2.435867,0.233492 c -3.050783,0.292434 -5.061807,0.294573 -8.260122,0.0088 -2.056739,-0.183781 -2.541819,-0.154112 -2.663472,0.162907 -0.281155,0.732677 0.253722,1.032378 2.300117,1.288797 2.217452,0.277853 8.345207,0.153363 9.910824,-0.201346 z"
     style="fill:#aa0000;stroke-width:0.275794" />
</svg>
